<svg xmlns="http://www.w3.org/2000/svg" width="1600" height="900" viewBox="0 0 1600 900"><rect width="1600" height="900" fill="#161614"/><line x1="200" y1="0" x2="200" y2="900" stroke="rgba(250,250,247,0.07)" stroke-width="1"/><line x1="400" y1="0" x2="400" y2="900" stroke="rgba(250,250,247,0.07)" stroke-width="1"/><line x1="600" y1="0" x2="600" y2="900" stroke="rgba(250,250,247,0.07)" stroke-width="1"/><line x1="800" y1="0" x2="800" y2="900" stroke="rgba(250,250,247,0.07)" stroke-width="1"/><line x1="1000" y1="0" x2="1000" y2="900" stroke="rgba(250,250,247,0.07)" stroke-width="1"/><line x1="1200" y1="0" x2="1200" y2="900" stroke="rgba(250,250,247,0.07)" stroke-width="1"/><line x1="1400" y1="0" x2="1400" y2="900" stroke="rgba(250,250,247,0.07)" stroke-width="1"/><line x1="0" y1="180" x2="1600" y2="180" stroke="rgba(250,250,247,0.07)" stroke-width="1"/><line x1="0" y1="360" x2="1600" y2="360" stroke="rgba(250,250,247,0.07)" stroke-width="1"/><line x1="0" y1="540" x2="1600" y2="540" stroke="rgba(250,250,247,0.07)" stroke-width="1"/><line x1="0" y1="720" x2="1600" y2="720" stroke="rgba(250,250,247,0.07)" stroke-width="1"/><rect x="460" y="222" width="102" height="102" fill="none" stroke="rgba(250,250,247,0.16)" stroke-width="1.5"/><circle cx="629" cy="273" r="45" fill="none" stroke="#fafaf7" stroke-opacity="0.55" stroke-width="1.5"/><rect x="696" y="222" width="102" height="102" fill="none" stroke="rgba(250,250,247,0.16)" stroke-width="1.5"/><rect x="814" y="222" width="102" height="102" fill="none" stroke="rgba(250,250,247,0.16)" stroke-width="1.5"/><rect x="932" y="222" width="102" height="102" fill="none" stroke="rgba(250,250,247,0.16)" stroke-width="1.5"/><rect x="1050" y="222" width="102" height="102" fill="none" stroke="rgba(250,250,247,0.16)" stroke-width="1.5"/><rect x="460" y="340" width="102" height="102" fill="none" stroke="rgba(250,250,247,0.16)" stroke-width="1.5"/><rect x="578" y="340" width="102" height="102" fill="none" stroke="rgba(250,250,247,0.16)" stroke-width="1.5"/><rect x="696" y="340" width="102" height="102" fill="#2743cd"/><rect x="814" y="340" width="102" height="102" fill="none" stroke="rgba(250,250,247,0.16)" stroke-width="1.5"/><rect x="932" y="340" width="102" height="102" fill="none" stroke="rgba(250,250,247,0.16)" stroke-width="1.5"/><rect x="1050" y="340" width="102" height="102" fill="none" stroke="rgba(250,250,247,0.16)" stroke-width="1.5"/><rect x="460" y="458" width="102" height="102" fill="none" stroke="rgba(250,250,247,0.16)" stroke-width="1.5"/><rect x="578" y="458" width="102" height="102" fill="none" stroke="rgba(250,250,247,0.16)" stroke-width="1.5"/><rect x="696" y="458" width="102" height="102" fill="none" stroke="rgba(250,250,247,0.16)" stroke-width="1.5"/><circle cx="865" cy="509" r="45" fill="none" stroke="#fafaf7" stroke-opacity="0.55" stroke-width="1.5"/><rect x="932" y="458" width="102" height="102" fill="none" stroke="rgba(250,250,247,0.16)" stroke-width="1.5"/><rect x="1050" y="458" width="102" height="102" fill="none" stroke="rgba(250,250,247,0.16)" stroke-width="1.5"/><rect x="460" y="576" width="102" height="102" fill="none" stroke="rgba(250,250,247,0.16)" stroke-width="1.5"/><rect x="578" y="576" width="102" height="102" fill="none" stroke="rgba(250,250,247,0.16)" stroke-width="1.5"/><rect x="696" y="576" width="102" height="102" fill="none" stroke="rgba(250,250,247,0.16)" stroke-width="1.5"/><rect x="814" y="576" width="102" height="102" fill="none" stroke="rgba(250,250,247,0.16)" stroke-width="1.5"/><rect x="932" y="576" width="102" height="102" fill="none" stroke="rgba(250,250,247,0.16)" stroke-width="1.5"/><rect x="1050" y="576" width="102" height="102" fill="none" stroke="rgba(250,250,247,0.16)" stroke-width="1.5"/><text x="72" y="828" font-family="Inter Tight, Helvetica, Arial, sans-serif" font-size="26" letter-spacing="6" fill="rgba(250,250,247,0.5)">03 — DESIGN ORG &amp; SYSTEM</text><circle cx="1528" cy="818" r="5" fill="#3a54d6"/></svg>