<svg xmlns="http://www.w3.org/2000/svg" width="1600" height="900" viewBox="0 0 1600 900"><rect width="1600" height="900" fill="#f1f0ea"/><rect x="240" y="160" width="760" height="520" rx="12" fill="#fafaf7" stroke="#d8d6cc" stroke-width="2"/><line x1="240" y1="232" x2="1000" y2="232" stroke="#d8d6cc" stroke-width="2"/><circle cx="286" cy="196" r="8" fill="#c3c1b5"/><rect x="320" y="188" width="140" height="16" rx="4" fill="#c3c1b5"/><rect x="288" y="280" width="300" height="26" rx="5" fill="#c3c1b5"/><rect x="288" y="330" width="420" height="14" rx="4" fill="#d8d6cc"/><rect x="288" y="358" width="360" height="14" rx="4" fill="#d8d6cc" opacity="0.6"/><rect x="288" y="420" width="200" height="150" rx="8" fill="none" stroke="#d8d6cc" stroke-width="2"/><rect x="312" y="448" width="90" height="30" rx="4" fill="#2743cd"/><rect x="312" y="500" width="150" height="12" rx="3" fill="#d8d6cc"/><rect x="312" y="524" width="110" height="12" rx="3" fill="#d8d6cc" opacity="0.6"/><rect x="520" y="420" width="200" height="150" rx="8" fill="none" stroke="#d8d6cc" stroke-width="2"/><rect x="544" y="448" width="90" height="30" rx="4" fill="#d8d6cc"/><rect x="544" y="500" width="150" height="12" rx="3" fill="#d8d6cc"/><rect x="544" y="524" width="110" height="12" rx="3" fill="#d8d6cc" opacity="0.6"/><rect x="752" y="420" width="200" height="150" rx="8" fill="none" stroke="#d8d6cc" stroke-width="2"/><rect x="776" y="448" width="90" height="30" rx="4" fill="#d8d6cc"/><rect x="776" y="500" width="150" height="12" rx="3" fill="#d8d6cc"/><rect x="776" y="524" width="110" height="12" rx="3" fill="#d8d6cc" opacity="0.6"/><rect x="1080" y="120" width="280" height="600" rx="28" fill="#fafaf7" stroke="#d8d6cc" stroke-width="2"/><rect x="1116" y="180" width="150" height="20" rx="5" fill="#c3c1b5"/><circle cx="1220" cy="360" r="86" fill="none" stroke="#2743cd" stroke-width="3"/><path d="M 1220 274 A 86 86 0 0 1 1298 400" fill="none" stroke="#d8d6cc" stroke-width="3"/><rect x="1116" y="500" width="208" height="14" rx="4" fill="#d8d6cc"/><rect x="1116" y="530" width="160" height="14" rx="4" fill="#d8d6cc" opacity="0.6"/><rect x="1116" y="600" width="208" height="52" rx="26" fill="#2743cd"/><text x="72" y="836" font-family="Inter Tight, Helvetica, Arial, sans-serif" font-size="24" letter-spacing="5" fill="#9a988e">FIG.02 — COMPONENT LIBRARY IN PRODUCT</text></svg>