<svg xmlns="http://www.w3.org/2000/svg" width="1600" height="900" viewBox="0 0 1600 900"><rect width="1600" height="900" fill="#161614"/><line x1="200" y1="0" x2="200" y2="900" stroke="rgba(250,250,247,0.07)" stroke-width="1"/><line x1="400" y1="0" x2="400" y2="900" stroke="rgba(250,250,247,0.07)" stroke-width="1"/><line x1="600" y1="0" x2="600" y2="900" stroke="rgba(250,250,247,0.07)" stroke-width="1"/><line x1="800" y1="0" x2="800" y2="900" stroke="rgba(250,250,247,0.07)" stroke-width="1"/><line x1="1000" y1="0" x2="1000" y2="900" stroke="rgba(250,250,247,0.07)" stroke-width="1"/><line x1="1200" y1="0" x2="1200" y2="900" stroke="rgba(250,250,247,0.07)" stroke-width="1"/><line x1="1400" y1="0" x2="1400" y2="900" stroke="rgba(250,250,247,0.07)" stroke-width="1"/><line x1="0" y1="180" x2="1600" y2="180" stroke="rgba(250,250,247,0.07)" stroke-width="1"/><line x1="0" y1="360" x2="1600" y2="360" stroke="rgba(250,250,247,0.07)" stroke-width="1"/><line x1="0" y1="540" x2="1600" y2="540" stroke="rgba(250,250,247,0.07)" stroke-width="1"/><line x1="0" y1="720" x2="1600" y2="720" stroke="rgba(250,250,247,0.07)" stroke-width="1"/><rect x="480" y="560" width="86" height="140" fill="none" stroke="rgba(250,250,247,0.16)" stroke-width="1.5"/><rect x="610" y="490" width="86" height="210" fill="none" stroke="rgba(250,250,247,0.16)" stroke-width="1.5"/><rect x="740" y="400" width="86" height="300" fill="none" stroke="rgba(250,250,247,0.16)" stroke-width="1.5"/><rect x="870" y="280" width="86" height="420" fill="none" stroke="rgba(250,250,247,0.16)" stroke-width="1.5"/><rect x="1000" y="140" width="86" height="560" fill="#2743cd" stroke="none" stroke-width="1.5"/><circle cx="1130" cy="200" r="120" fill="none" stroke="rgba(250,250,247,0.16)" stroke-width="1.5"/><circle cx="1130" cy="200" r="8" fill="#fafaf7"/><line x1="300" y1="700" x2="1300" y2="700" stroke="rgba(250,250,247,0.16)" stroke-width="1.5"/><path d="M 380 560 Q 700 540 980 340 T 1300 170" fill="none" stroke="#3a54d6" stroke-width="2" stroke-dasharray="1 10" stroke-linecap="round"/><text x="72" y="828" font-family="Inter Tight, Helvetica, Arial, sans-serif" font-size="26" letter-spacing="6" fill="rgba(250,250,247,0.5)">01 — REVENUE ARCHITECTURE</text><circle cx="1528" cy="818" r="5" fill="#3a54d6"/></svg>