<svg xmlns="http://www.w3.org/2000/svg" width="1600" height="900" viewBox="0 0 1600 900"><rect width="1600" height="900" fill="#161614"/><line x1="200" y1="0" x2="200" y2="900" stroke="rgba(250,250,247,0.07)" stroke-width="1"/><line x1="400" y1="0" x2="400" y2="900" stroke="rgba(250,250,247,0.07)" stroke-width="1"/><line x1="600" y1="0" x2="600" y2="900" stroke="rgba(250,250,247,0.07)" stroke-width="1"/><line x1="800" y1="0" x2="800" y2="900" stroke="rgba(250,250,247,0.07)" stroke-width="1"/><line x1="1000" y1="0" x2="1000" y2="900" stroke="rgba(250,250,247,0.07)" stroke-width="1"/><line x1="1200" y1="0" x2="1200" y2="900" stroke="rgba(250,250,247,0.07)" stroke-width="1"/><line x1="1400" y1="0" x2="1400" y2="900" stroke="rgba(250,250,247,0.07)" stroke-width="1"/><line x1="0" y1="180" x2="1600" y2="180" stroke="rgba(250,250,247,0.07)" stroke-width="1"/><line x1="0" y1="360" x2="1600" y2="360" stroke="rgba(250,250,247,0.07)" stroke-width="1"/><line x1="0" y1="540" x2="1600" y2="540" stroke="rgba(250,250,247,0.07)" stroke-width="1"/><line x1="0" y1="720" x2="1600" y2="720" stroke="rgba(250,250,247,0.07)" stroke-width="1"/><path d="M 320 640 L 560 640 L 560 420 L 880 420 L 880 250 L 1280 250" fill="none" stroke="rgba(250,250,247,0.16)" stroke-width="1.5"/><path d="M 320 640 L 560 640 L 560 420" fill="none" stroke="#3a54d6" stroke-width="2.5"/><circle cx="320" cy="640" r="12" fill="none" stroke="#fafaf7" stroke-opacity="0.7" stroke-width="1.5"/><circle cx="560" cy="420" r="34" fill="#2743cd" stroke="none" stroke-opacity="0.7" stroke-width="1.5"/><circle cx="880" cy="250" r="12" fill="none" stroke="#fafaf7" stroke-opacity="0.7" stroke-width="1.5"/><circle cx="1280" cy="250" r="12" fill="#fafaf7"/><rect x="1180" y="540" width="200" height="130" fill="none" stroke="rgba(250,250,247,0.16)" stroke-width="1.5"/><line x1="1210" y1="580" x2="1350" y2="580" stroke="rgba(250,250,247,0.16)" stroke-width="1.5"/><line x1="1210" y1="612" x2="1310" y2="612" stroke="rgba(250,250,247,0.16)" stroke-width="1.5"/><text x="72" y="828" font-family="Inter Tight, Helvetica, Arial, sans-serif" font-size="26" letter-spacing="6" fill="rgba(250,250,247,0.5)">04 — CLAIMS EXPERIENCE DX</text><circle cx="1528" cy="818" r="5" fill="#3a54d6"/></svg>