<svg xmlns="http://www.w3.org/2000/svg" width="1600" height="900" viewBox="0 0 1600 900"><rect width="1600" height="900" fill="#161614"/><line x1="200" y1="0" x2="200" y2="900" stroke="rgba(250,250,247,0.07)" stroke-width="1"/><line x1="400" y1="0" x2="400" y2="900" stroke="rgba(250,250,247,0.07)" stroke-width="1"/><line x1="600" y1="0" x2="600" y2="900" stroke="rgba(250,250,247,0.07)" stroke-width="1"/><line x1="800" y1="0" x2="800" y2="900" stroke="rgba(250,250,247,0.07)" stroke-width="1"/><line x1="1000" y1="0" x2="1000" y2="900" stroke="rgba(250,250,247,0.07)" stroke-width="1"/><line x1="1200" y1="0" x2="1200" y2="900" stroke="rgba(250,250,247,0.07)" stroke-width="1"/><line x1="1400" y1="0" x2="1400" y2="900" stroke="rgba(250,250,247,0.07)" stroke-width="1"/><line x1="0" y1="180" x2="1600" y2="180" stroke="rgba(250,250,247,0.07)" stroke-width="1"/><line x1="0" y1="360" x2="1600" y2="360" stroke="rgba(250,250,247,0.07)" stroke-width="1"/><line x1="0" y1="540" x2="1600" y2="540" stroke="rgba(250,250,247,0.07)" stroke-width="1"/><line x1="0" y1="720" x2="1600" y2="720" stroke="rgba(250,250,247,0.07)" stroke-width="1"/><circle cx="640" cy="450" r="270" fill="none" stroke="rgba(250,250,247,0.16)" stroke-width="1.5"/><circle cx="960" cy="450" r="270" fill="none" stroke="rgba(250,250,247,0.16)" stroke-width="1.5"/><clipPath id="lens"><circle cx="640" cy="450" r="270"/></clipPath><circle cx="960" cy="450" r="270" fill="#2743cd" fill-opacity="0.92" clip-path="url(#lens)"/><circle cx="430" cy="330" r="7" fill="rgba(250,250,247,0.6)"/><circle cx="520" cy="600" r="9" fill="rgba(250,250,247,0.45)"/><circle cx="1160" cy="320" r="8" fill="rgba(250,250,247,0.6)"/><circle cx="1090" cy="610" r="6" fill="rgba(250,250,247,0.4)"/><circle cx="800" cy="450" r="10" fill="#fafaf7"/><text x="72" y="828" font-family="Inter Tight, Helvetica, Arial, sans-serif" font-size="26" letter-spacing="6" fill="rgba(250,250,247,0.5)">05 — MARKETPLACE LIQUIDITY</text><circle cx="1528" cy="818" r="5" fill="#3a54d6"/></svg>