<svg xmlns="http://www.w3.org/2000/svg" width="1600" height="900" viewBox="0 0 1600 900"><rect width="1600" height="900" fill="#f1f0ea"/><rect x="240" y="150" width="1120" height="580" rx="12" fill="#fafaf7" stroke="#d8d6cc" stroke-width="2"/><rect x="300" y="210" width="300" height="140" rx="8" fill="none" stroke="#d8d6cc" stroke-width="2"/><rect x="330" y="244" width="80" height="12" rx="3" fill="#c3c1b5"/><rect x="330" y="276" width="160" height="36" rx="5" fill="#2743cd"/><rect x="650" y="210" width="300" height="140" rx="8" fill="none" stroke="#d8d6cc" stroke-width="2"/><rect x="680" y="244" width="80" height="12" rx="3" fill="#c3c1b5"/><rect x="680" y="276" width="120" height="36" rx="5" fill="#d8d6cc"/><rect x="1000" y="210" width="300" height="140" rx="8" fill="none" stroke="#d8d6cc" stroke-width="2"/><rect x="1030" y="244" width="80" height="12" rx="3" fill="#c3c1b5"/><rect x="1030" y="276" width="120" height="36" rx="5" fill="#d8d6cc"/><line x1="300" y1="660" x2="1300" y2="660" stroke="#d8d6cc" stroke-width="2"/><path d="M 300 640 L 460 620 L 620 626 L 780 570 L 940 520 L 1100 470 L 1300 420" fill="none" stroke="#2743cd" stroke-width="3" stroke-linejoin="round"/><path d="M 300 644 L 460 640 L 620 648 L 780 630 L 940 626 L 1100 616 L 1300 610" fill="none" stroke="#c3c1b5" stroke-width="2.5" stroke-dasharray="2 10" stroke-linecap="round"/><circle cx="1300" cy="420" r="8" fill="#2743cd"/><text x="72" y="836" font-family="Inter Tight, Helvetica, Arial, sans-serif" font-size="24" letter-spacing="5" fill="#9a988e">FIG.02 — MATCH RATE &amp; GMV</text></svg>