<svg xmlns="http://www.w3.org/2000/svg" width="1600" height="900" viewBox="0 0 1600 900"><rect width="1600" height="900" fill="#f1f0ea"/><rect x="260" y="220" width="280" height="380" rx="10" fill="#fafaf7" stroke="#d8d6cc" stroke-width="2"/><rect x="292" y="262" width="120" height="20" rx="4" fill="#c3c1b5"/><rect x="292" y="318" width="216" height="12" rx="3" fill="#d8d6cc"/><rect x="292" y="338" width="150" height="12" rx="3" fill="#d8d6cc" opacity="0.6"/><rect x="292" y="374" width="216" height="12" rx="3" fill="#d8d6cc"/><rect x="292" y="394" width="150" height="12" rx="3" fill="#d8d6cc" opacity="0.6"/><rect x="292" y="430" width="216" height="12" rx="3" fill="#d8d6cc"/><rect x="292" y="450" width="150" height="12" rx="3" fill="#d8d6cc" opacity="0.6"/><rect x="292" y="486" width="216" height="12" rx="3" fill="#d8d6cc"/><rect x="292" y="506" width="150" height="12" rx="3" fill="#d8d6cc" opacity="0.6"/><line x1="540" y1="410" x2="660" y2="410" stroke="#c3c1b5" stroke-width="2"/><path d="M 652 402 L 664 410 L 652 418" fill="none" stroke="#c3c1b5" stroke-width="2"/><rect x="660" y="220" width="280" height="380" rx="10" fill="#fafaf7" stroke="#d8d6cc" stroke-width="2"/><rect x="692" y="262" width="150" height="20" rx="4" fill="#2743cd"/><rect x="692" y="318" width="216" height="12" rx="3" fill="#d8d6cc"/><rect x="692" y="338" width="150" height="12" rx="3" fill="#d8d6cc" opacity="0.6"/><rect x="692" y="374" width="216" height="12" rx="3" fill="#d8d6cc"/><rect x="692" y="394" width="150" height="12" rx="3" fill="#d8d6cc" opacity="0.6"/><rect x="692" y="430" width="216" height="12" rx="3" fill="#d8d6cc"/><rect x="692" y="450" width="150" height="12" rx="3" fill="#d8d6cc" opacity="0.6"/><rect x="692" y="486" width="216" height="12" rx="3" fill="#d8d6cc"/><rect x="692" y="506" width="150" height="12" rx="3" fill="#d8d6cc" opacity="0.6"/><line x1="940" y1="410" x2="1060" y2="410" stroke="#c3c1b5" stroke-width="2"/><path d="M 1052 402 L 1064 410 L 1052 418" fill="none" stroke="#c3c1b5" stroke-width="2"/><rect x="1060" y="220" width="280" height="380" rx="10" fill="#fafaf7" stroke="#d8d6cc" stroke-width="2"/><rect x="1092" y="262" width="120" height="20" rx="4" fill="#c3c1b5"/><rect x="1092" y="318" width="216" height="12" rx="3" fill="#d8d6cc"/><rect x="1092" y="338" width="150" height="12" rx="3" fill="#d8d6cc" opacity="0.6"/><rect x="1092" y="374" width="216" height="12" rx="3" fill="#d8d6cc"/><rect x="1092" y="394" width="150" height="12" rx="3" fill="#d8d6cc" opacity="0.6"/><rect x="1092" y="430" width="216" height="12" rx="3" fill="#d8d6cc"/><rect x="1092" y="450" width="150" height="12" rx="3" fill="#d8d6cc" opacity="0.6"/><rect x="1092" y="486" width="216" height="12" rx="3" fill="#d8d6cc"/><rect x="1092" y="506" width="150" height="12" rx="3" fill="#d8d6cc" opacity="0.6"/><circle cx="1420" cy="270" r="36" fill="none" stroke="#2743cd" stroke-width="2"/><text x="72" y="836" font-family="Inter Tight, Helvetica, Arial, sans-serif" font-size="24" letter-spacing="5" fill="#9a988e">FIG.01 — CROSS-PLATFORM UI FOUNDATION</text></svg>