<svg xmlns="http://www.w3.org/2000/svg" width="1600" height="900" viewBox="0 0 1600 900"><rect width="1600" height="900" fill="#161614"/><line x1="200" y1="0" x2="200" y2="900" stroke="rgba(250,250,247,0.07)" stroke-width="1"/><line x1="400" y1="0" x2="400" y2="900" stroke="rgba(250,250,247,0.07)" stroke-width="1"/><line x1="600" y1="0" x2="600" y2="900" stroke="rgba(250,250,247,0.07)" stroke-width="1"/><line x1="800" y1="0" x2="800" y2="900" stroke="rgba(250,250,247,0.07)" stroke-width="1"/><line x1="1000" y1="0" x2="1000" y2="900" stroke="rgba(250,250,247,0.07)" stroke-width="1"/><line x1="1200" y1="0" x2="1200" y2="900" stroke="rgba(250,250,247,0.07)" stroke-width="1"/><line x1="1400" y1="0" x2="1400" y2="900" stroke="rgba(250,250,247,0.07)" stroke-width="1"/><line x1="0" y1="180" x2="1600" y2="180" stroke="rgba(250,250,247,0.07)" stroke-width="1"/><line x1="0" y1="360" x2="1600" y2="360" stroke="rgba(250,250,247,0.07)" stroke-width="1"/><line x1="0" y1="540" x2="1600" y2="540" stroke="rgba(250,250,247,0.07)" stroke-width="1"/><line x1="0" y1="720" x2="1600" y2="720" stroke="rgba(250,250,247,0.07)" stroke-width="1"/><rect x="340" y="360" width="600" height="340" fill="#161614" stroke="#fafaf7" stroke-opacity="0.196" stroke-width="1.5"/><rect x="420" y="300" width="600" height="340" fill="#161614" stroke="#fafaf7" stroke-opacity="0.385" stroke-width="1.5"/><rect x="500" y="240" width="600" height="340" fill="#161614" stroke="#fafaf7" stroke-opacity="0.7" stroke-width="1.5"/><rect x="540" y="280" width="220" height="26" fill="#2743cd"/><line x1="540" y1="350" x2="1060" y2="350" stroke="rgba(250,250,247,0.16)" stroke-width="1.5"/><line x1="540" y1="392" x2="940" y2="392" stroke="rgba(250,250,247,0.16)" stroke-width="1.5"/><circle cx="1040" cy="520" r="28" fill="none" stroke="#fafaf7" stroke-opacity="0.7" stroke-width="1.5"/><circle cx="1200" cy="160" r="46" fill="none" stroke="rgba(250,250,247,0.16)" stroke-width="1.5"/><text x="72" y="828" font-family="Inter Tight, Helvetica, Arial, sans-serif" font-size="26" letter-spacing="6" fill="rgba(250,250,247,0.5)">06 — XR UI FOUNDATION</text><circle cx="1528" cy="818" r="5" fill="#3a54d6"/></svg>