<svg width="720" height="720" viewBox="0 0 720 720" fill="none" xmlns="http://www.w3.org/2000/svg">
<path d="M428.889 147.5C432.244 147.505 434.554 147.57 436.673 148.273C438.734 148.958 440.624 150.077 442.216 151.554C444.086 153.289 445.345 155.645 447.364 159.323L633.168 497.749C637.428 505.509 640.709 511.479 642.812 516.309C644.91 521.129 646.007 525.178 645.542 529.041C644.788 535.305 641.439 540.965 636.311 544.641C633.148 546.907 629.071 547.894 623.836 548.374C618.591 548.855 611.778 548.853 602.926 548.853H117.074C108.222 548.853 101.409 548.855 96.1641 548.374C90.9288 547.894 86.852 546.907 83.6895 544.641C78.5614 540.965 75.2119 535.305 74.458 529.041C73.9931 525.178 75.0897 521.129 77.1885 516.309C79.2911 511.479 82.5717 505.509 86.832 497.749L272.636 159.323C274.655 155.645 275.914 153.289 277.784 151.554C279.376 150.077 281.266 148.958 283.327 148.273C285.446 147.57 287.756 147.505 291.111 147.5H428.889ZM499.693 516.396H607.552L422.839 179.957H314.98L499.693 516.396ZM256.16 516.396H463.84L360 327.26L256.16 516.396ZM112.448 516.396H220.307L342.072 294.606L288.144 196.38L112.448 516.396Z" fill="#1B1B1B" stroke="#1B1B1B" stroke-width="5"/>
</svg>
